<svg width="20" height="20" viewBox="0 0 20 20" fill="none" xmlns="http://www.w3.org/2000/svg">
    <path d="M14.1667 2.78336C15.4236 3.50907 16.4691 4.55046 17.1999 5.80444C17.9306 7.05842 18.3212 8.4815 18.3329 9.9328C18.3446 11.3841 17.9771 12.8133 17.2667 14.0789C16.5563 15.3446 15.5277 16.4027 14.2827 17.1486C13.0377 17.8945 11.6195 18.3024 10.1684 18.3317C8.71738 18.3611 7.28381 18.011 6.00965 17.3161C4.73549 16.6211 3.66491 15.6055 2.90391 14.3696C2.14291 13.1338 1.71786 11.7206 1.67085 10.27L1.66669 10L1.67085 9.73002C1.71752 8.29085 2.13631 6.88832 2.88639 5.65918C3.63646 4.43004 4.69223 3.41623 5.95076 2.71659C7.2093 2.01695 8.62764 1.65535 10.0675 1.66705C11.5074 1.67875 12.9197 2.06335 14.1667 2.78336ZM10 5.00002C9.79591 5.00005 9.59891 5.07499 9.44638 5.21062C9.29385 5.34625 9.1964 5.53315 9.17252 5.73586L9.16669 5.83336V10L9.17419 10.1092C9.19319 10.2538 9.2498 10.3908 9.33835 10.5067L9.41085 10.59L11.9109 13.09L11.9892 13.1584C12.1353 13.2717 12.315 13.3333 12.5 13.3333C12.685 13.3333 12.8647 13.2717 13.0109 13.1584L13.0892 13.0892L13.1584 13.0109C13.2717 12.8647 13.3333 12.685 13.3333 12.5C13.3333 12.315 13.2717 12.1353 13.1584 11.9892L13.0892 11.9109L10.8334 9.65419V5.83336L10.8275 5.73586C10.8036 5.53315 10.7062 5.34625 10.5537 5.21062C10.4011 5.07499 10.2041 5.00005 10 5.00002Z" fill="#666561"/>
</svg>
