<svg width="42" height="38" viewBox="0 0 42 38" fill="none" xmlns="http://www.w3.org/2000/svg">
<path d="M35.2496 -0.00195312H6.74962C3.32962 -0.00195312 0.538086 2.78959 0.538086 6.20959V25.1804C0.538086 28.615 3.32962 31.3919 6.74962 31.3919H19.4065C22.3589 31.3919 25.2527 32.4004 27.5619 34.2273L31.6689 37.4719C32.1073 37.8227 32.6335 37.998 33.1596 37.998C33.5104 37.998 33.8758 37.925 34.2119 37.7496C35.045 37.355 35.5712 36.5219 35.5712 35.5865V31.3919C38.845 31.2311 41.4612 28.5127 41.4612 25.195V6.20959C41.4612 2.78959 38.6696 -0.00195312 35.2496 -0.00195312ZM20.9996 24.2888H9.30732C8.50347 24.2888 7.84578 23.6457 7.84578 22.8273C7.84578 22.0234 8.50347 21.3657 9.30732 21.3657H20.9996C21.8035 21.3657 22.4612 22.0234 22.4612 22.8273C22.4612 23.6457 21.8035 24.2888 20.9996 24.2888ZM32.6919 17.1711H9.30732C8.50347 17.1711 7.84578 16.5134 7.84578 15.7096C7.84578 14.9057 8.50347 14.248 9.30732 14.248H32.6919C33.4958 14.248 34.1535 14.9057 34.1535 15.7096C34.1535 16.5134 33.4958 17.1711 32.6919 17.1711ZM32.6919 10.0534H9.30732C8.50347 10.0534 7.84578 9.39574 7.84578 8.59189C7.84578 7.77343 8.50347 7.13035 9.30732 7.13035H32.6919C33.4958 7.13035 34.1535 7.77343 34.1535 8.59189C34.1535 9.39574 33.4958 10.0534 32.6919 10.0534Z" fill="#373632"/>
</svg>
