<svg width="39" height="68" viewBox="0 0 39 68" fill="none" xmlns="http://www.w3.org/2000/svg">
<path fill-rule="evenodd" clip-rule="evenodd" d="M8.32213 9.7309C9.28443 9.73093 10.2251 9.4456 11.0253 8.911C11.8254 8.3764 12.4491 7.61653 12.8173 6.72749C13.1856 5.83845 13.282 4.86017 13.0943 3.91635C12.9066 2.97254 12.4432 2.10558 11.7627 1.42512C11.0823 0.744657 10.2154 0.281251 9.27156 0.0935028C8.32775 -0.0942453 7.34946 0.00209684 6.46041 0.370346C5.57135 0.738595 4.81146 1.36221 4.27683 2.16233C3.7422 2.96246 3.45685 3.90315 3.45685 4.86545C3.45685 6.15582 3.96943 7.39334 4.88184 8.30578C5.79426 9.21822 7.03176 9.73085 8.32213 9.7309ZM21.8403 11.885C22.4412 11.885 23.0286 11.7068 23.5281 11.373C24.0277 11.0392 24.4171 10.5647 24.6471 10.0096C24.877 9.45448 24.9372 8.84365 24.8199 8.25434C24.7027 7.66503 24.4134 7.12372 23.9885 6.69885C23.5636 6.27398 23.0223 5.98464 22.433 5.86742C21.8437 5.7502 21.2329 5.81037 20.6778 6.0403C20.1226 6.27024 19.6482 6.65962 19.3144 7.15921C18.9805 7.65881 18.8024 8.24616 18.8024 8.84702C18.8024 9.24597 18.881 9.64101 19.0336 10.0096C19.1863 10.3782 19.4101 10.7131 19.6922 10.9952C19.9743 11.2773 20.3092 11.5011 20.6778 11.6537C21.0463 11.8064 21.4414 11.885 21.8403 11.885ZM28.458 30.7598C28.9046 32.8405 29.7687 34.8091 30.9978 36.5464C36.0279 43.5597 38.9133 52.1308 38.9124 60.0621C38.9124 62.215 36.7648 64.2378 32.8649 65.7579C29.1574 67.203 24.396 67.9988 19.4562 67.9988C14.5164 67.9988 9.75507 67.203 6.04754 65.7579C2.14679 64.2373 0 62.215 0 60.0621C0 52.2471 2.95903 43.456 7.91525 36.5461C9.14449 34.8088 10.0086 32.8402 10.4553 30.7595C10.902 28.6787 10.9221 26.5289 10.5142 24.4402C10.5142 24.4402 9.29038 18.3358 9.29038 18.1012C9.29038 17.4844 9.5392 16.3496 11.2005 15.6799C11.8995 15.4183 12.6239 15.2308 13.362 15.1204C15.3787 14.8123 17.4169 14.6668 19.4569 14.6851C21.4967 14.6669 23.5347 14.8126 25.5512 15.1207C26.2893 15.2311 27.0138 15.4187 27.7127 15.6802C29.3747 16.35 29.6229 17.4847 29.6229 18.1016C29.6229 18.3358 28.399 24.4405 28.399 24.4405C27.9912 26.5292 28.0113 28.679 28.458 30.7598ZM3.89381 56.04L2.55671 55.7616C2.52831 55.7557 2.499 55.7557 2.47061 55.7617C2.44222 55.7677 2.41536 55.7794 2.39172 55.7962C2.36807 55.813 2.34814 55.8345 2.33316 55.8593C2.31819 55.8842 2.30849 55.9118 2.30468 55.9406C2.23458 56.4823 2.17778 57.0214 2.13428 57.5578C2.1303 57.6089 2.14512 57.6598 2.17596 57.7008C2.2068 57.7418 2.25155 57.7702 2.3018 57.7806L3.52226 58.0341C3.59067 58.0482 3.66033 58.0554 3.73018 58.0554C3.97441 58.0552 4.21036 57.9669 4.39469 57.8067C4.57903 57.6465 4.69936 57.4252 4.7336 57.1833C4.76355 56.922 4.69367 56.659 4.53794 56.447C4.38222 56.2349 4.15215 56.0896 3.89381 56.04ZM19.4569 41.494C25.6185 41.494 30.6135 40.6956 30.6135 39.711C30.6135 38.726 25.6185 37.9276 19.4569 37.9276C13.2952 37.9276 8.30032 38.7263 8.30032 39.711C8.30032 40.6956 13.2952 41.494 19.4569 41.494ZM7.58405 43.8298C7.4804 43.7461 7.36129 43.6837 7.23351 43.646L6.35265 43.4182C6.30559 43.4059 6.25576 43.4103 6.21156 43.4306C6.16737 43.4509 6.13152 43.4858 6.11008 43.5294C5.87038 44.0188 5.64049 44.5122 5.4204 45.0095C5.40819 45.0374 5.40215 45.0676 5.40269 45.098C5.40323 45.1285 5.41034 45.1584 5.42353 45.1859C5.43673 45.2133 5.4557 45.2376 5.47914 45.257C5.50258 45.2764 5.52994 45.2905 5.55935 45.2984L6.66047 45.592C6.78825 45.6296 6.92218 45.6417 7.05463 45.6276C7.18708 45.6135 7.31544 45.5734 7.4324 45.5096C7.54935 45.4459 7.65261 45.3597 7.73627 45.2561C7.81993 45.1524 7.88235 45.0333 7.91998 44.9055C7.95761 44.7778 7.9697 44.6438 7.95556 44.5114C7.94143 44.3789 7.90134 44.2506 7.8376 44.1336C7.77385 44.0167 7.6877 43.9134 7.58405 43.8298ZM6.37746 48.0696C6.23478 47.854 6.01696 47.6992 5.76642 47.6354L4.67646 47.3394C4.62554 47.3256 4.57129 47.3313 4.52438 47.3554C4.47746 47.3796 4.44127 47.4204 4.4229 47.4699C4.23538 47.9778 4.05817 48.4876 3.89128 48.9993C3.88253 49.0265 3.87939 49.0552 3.88206 49.0837C3.88472 49.1121 3.89312 49.1397 3.90676 49.1648C3.92039 49.1899 3.93898 49.212 3.96139 49.2297C3.9838 49.2475 4.00958 49.2605 4.03716 49.2679L5.27452 49.6035C5.41041 49.6405 5.55251 49.6487 5.69176 49.6277C5.83101 49.6067 5.96435 49.5568 6.08327 49.4814C6.20219 49.406 6.30407 49.3066 6.38241 49.1895C6.46075 49.0725 6.51383 48.9404 6.53826 48.8017C6.57746 48.5462 6.52013 48.2852 6.37746 48.0696ZM5.24979 52.1701C5.09793 51.9569 4.87141 51.8087 4.61527 51.7548L3.38298 51.4756C3.32919 51.4635 3.2728 51.4728 3.2258 51.5017C3.17881 51.5305 3.14489 51.5765 3.13128 51.6299C2.99943 52.1552 2.8789 52.68 2.7697 53.2045C2.75861 53.2587 2.7692 53.315 2.7992 53.3614C2.82919 53.4079 2.8762 53.4407 2.93012 53.4528L4.20822 53.7424C4.34412 53.7732 4.48489 53.7756 4.62177 53.7496C4.75865 53.7235 4.8887 53.6696 5.0038 53.591C5.1189 53.5125 5.21658 53.4111 5.29076 53.2932C5.36494 53.1752 5.41402 53.0432 5.43494 52.9055C5.46775 52.6458 5.40165 52.3833 5.24979 52.1701ZM27.5943 18.1012C27.5943 17.335 23.951 16.7136 19.4569 16.7136C14.9628 16.7136 11.3195 17.3348 11.3195 18.1012C11.3195 18.8676 14.9628 19.4889 19.4569 19.4889C23.951 19.4889 27.5943 18.8675 27.5943 18.1012ZM11.8708 20.7512L12.5067 24.0573C13.3434 28.3739 12.5561 32.8475 10.296 36.6191C10.5949 36.5586 10.9108 36.5008 11.2478 36.447C13.4577 36.0937 16.3729 35.8992 19.4569 35.8992C22.5408 35.8992 25.4561 36.0937 27.6659 36.447C28.003 36.5008 28.3189 36.5586 28.6178 36.6191C26.3577 32.8475 25.5704 28.3739 26.4071 24.0573L27.043 20.7512C26.5526 20.8895 26.0547 21 25.5518 21.082C23.5351 21.3902 21.4969 21.5357 19.4569 21.5173C17.4169 21.5357 15.3787 21.3902 13.362 21.082C12.8591 21 12.3612 20.8895 11.8708 20.7512Z" fill="#373632"/>
</svg>
