<svg width="20" height="20" viewBox="0 0 20 20" fill="none" xmlns="http://www.w3.org/2000/svg">
    <path d="M15.3033 3.86334C16.6803 5.24012 17.4678 7.09844 17.4993 9.04535C17.5309 10.9923 16.8041 12.8751 15.4725 14.2958L15.3033 14.4708L11.7675 18.0058C11.3188 18.4542 10.7165 18.7153 10.0826 18.7362C9.44868 18.757 8.83051 18.5362 8.35332 18.1183L8.23332 18.0058L4.69665 14.47C3.29012 13.0635 2.49994 11.1558 2.49994 9.16667C2.49994 7.17754 3.29012 5.26987 4.69665 3.86334C6.10318 2.45681 8.01085 1.66663 9.99999 1.66663C11.9891 1.66663 13.8968 2.45681 15.3033 3.86334ZM9.99999 6.66667C9.67168 6.66667 9.34659 6.73134 9.04328 6.85697C8.73996 6.98261 8.46437 7.16676 8.23222 7.3989C8.00007 7.63105 7.81592 7.90665 7.69029 8.20996C7.56465 8.51328 7.49999 8.83837 7.49999 9.16667C7.49999 9.49498 7.56465 9.82007 7.69029 10.1234C7.81592 10.4267 8.00007 10.7023 8.23222 10.9344C8.46437 11.1666 8.73996 11.3507 9.04328 11.4764C9.34659 11.602 9.67168 11.6667 9.99999 11.6667C10.663 11.6667 11.2989 11.4033 11.7678 10.9344C12.2366 10.4656 12.5 9.82971 12.5 9.16667C12.5 8.50363 12.2366 7.86775 11.7678 7.3989C11.2989 6.93006 10.663 6.66667 9.99999 6.66667Z" fill="#666561"/>
</svg>
