<svg width="36" height="36" viewBox="0 0 36 36" fill="none" xmlns="http://www.w3.org/2000/svg">
<path d="M3.13098 24.8756H11.6847C10.3084 23.6037 9.34732 21.9458 8.92705 20.1185C8.50677 18.2913 8.64683 16.3796 9.32894 14.6332C10.011 12.8869 11.2035 11.3871 12.7504 10.3298C14.2974 9.27255 16.1269 8.70697 18 8.70697C19.8731 8.70697 21.7026 9.27255 23.2496 10.3298C24.7965 11.3871 25.989 12.8869 26.6711 14.6332C27.3532 16.3796 27.4932 18.2913 27.073 20.1185C26.6527 21.9458 25.6916 23.6037 24.3153 24.8756H30.5255C31.6752 22.7815 32.2773 20.4303 32.2758 18.0407C32.2758 17.8759 32.3412 17.7179 32.4576 17.6014C32.574 17.4848 32.7319 17.4194 32.8965 17.4194C33.0611 17.4194 33.219 17.4848 33.3354 17.6014C33.4518 17.7179 33.5172 17.8759 33.5172 18.0407C33.5199 20.4109 32.9766 22.7498 31.9297 24.8756H32.869C33.4313 24.8758 33.9883 24.9853 34.509 25.1981C35.6991 22.4562 36.189 19.461 35.9346 16.4824C35.6802 13.5038 34.6895 10.6353 33.0518 8.13545C31.4141 5.6356 29.1809 3.58293 26.5533 2.16238C23.9257 0.74183 20.9863 -0.00195312 18 -0.00195312C15.0137 -0.00195312 12.0743 0.74183 9.44674 2.16238C6.81914 3.58293 4.58588 5.6356 2.94818 8.13545C1.31048 10.6353 0.31981 13.5038 0.0654288 16.4824C-0.188953 19.461 0.30095 22.4562 1.49099 25.1981C2.01166 24.9853 2.56862 24.8758 3.13098 24.8756ZM18 2.50687C18.1646 2.50687 18.3225 2.57234 18.4389 2.68886C18.5553 2.80539 18.6207 2.96343 18.6207 3.12823C18.6207 3.29302 18.5553 3.45106 18.4389 3.56759C18.3225 3.68412 18.1646 3.74958 18 3.74958C14.2151 3.75389 10.5865 5.26094 7.91017 7.94012C5.23386 10.6193 3.72841 14.2518 3.72411 18.0407C3.72411 18.2055 3.65872 18.3636 3.54231 18.4801C3.42591 18.5966 3.26804 18.6621 3.10342 18.6621C2.9388 18.6621 2.78093 18.5966 2.66453 18.4801C2.54813 18.3636 2.48273 18.2055 2.48273 18.0407C2.48735 13.9223 4.12368 9.9739 7.03272 7.06174C9.94177 4.14958 13.886 2.51149 18 2.50687Z" fill="#26B11A"/>
<path d="M32.869 26.0981H3.13101C2.30084 26.099 1.50494 26.4282 0.917957 27.0134C0.33097 27.5986 0.000837876 28.392 0 29.2196V32.8764C0.000805019 33.704 0.330923 34.4975 0.917914 35.0827C1.5049 35.6679 2.30082 35.9971 3.13101 35.9981H32.869C33.6992 35.9971 34.4951 35.668 35.082 35.0827C35.669 34.4975 35.9992 33.7041 36 32.8765V29.2197C35.9992 28.3921 35.6691 27.5986 35.0821 27.0134C34.4951 26.4282 33.6992 26.099 32.869 26.0981ZM32.8966 32.2856C32.5844 32.2801 32.2776 32.2036 31.9997 32.0619C31.7217 31.9202 31.4799 31.7171 31.2927 31.468C31.0159 31.1695 30.8917 31.0481 30.6008 31.0481C30.3099 31.0481 30.1856 31.1695 29.9086 31.468C29.7254 31.7211 29.4846 31.9272 29.2059 32.0693C28.9272 32.2114 28.6187 32.2856 28.3056 32.2856C27.9926 32.2856 27.684 32.2114 27.4053 32.0693C27.1267 31.9272 26.8858 31.7211 26.7027 31.468C26.4263 31.1689 26.3027 31.0481 26.0131 31.0481C25.7236 31.0481 25.5997 31.1689 25.3233 31.468C25.1404 31.7211 24.8997 31.9273 24.6212 32.0695C24.3426 32.2117 24.0342 32.2858 23.7212 32.2857C23.4083 32.2857 23.0999 32.2114 22.8214 32.0691C22.5429 31.9269 22.3023 31.7206 22.1195 31.4674C21.8429 31.1689 21.7193 31.0481 21.4299 31.0481C21.1404 31.0481 21.0165 31.1689 20.7401 31.468C20.5571 31.721 20.3165 31.9271 20.0379 32.0693C19.7594 32.2114 19.4509 32.2855 19.138 32.2855C18.8251 32.2855 18.5167 32.2114 18.2381 32.0693C17.9596 31.9271 17.7189 31.721 17.536 31.468C17.2596 31.1689 17.1359 31.0481 16.8462 31.0481C16.5565 31.0481 16.4328 31.1689 16.1564 31.468C15.9735 31.7211 15.7329 31.9273 15.4544 32.0695C15.1758 32.2117 14.8673 32.2858 14.5544 32.2857C14.2415 32.2857 13.933 32.2114 13.6545 32.0691C13.376 31.9269 13.1355 31.7206 12.9527 31.4674C12.6763 31.1689 12.5526 31.0481 12.2637 31.0481C11.9748 31.0481 11.8513 31.1689 11.5754 31.4674C11.3927 31.7206 11.1521 31.9268 10.8737 32.0691C10.5952 32.2114 10.2868 32.2856 9.97386 32.2856C9.66095 32.2856 9.35253 32.2114 9.07405 32.0691C8.79558 31.9268 8.55504 31.7206 8.3723 31.4674C8.09566 31.1689 7.97201 31.0481 7.68252 31.0481C7.39303 31.0481 7.27039 31.1689 6.99455 31.4674C6.80801 31.7164 6.56678 31.9197 6.28932 32.0615C6.01187 32.2033 5.70554 32.2799 5.39379 32.2856C5.08192 32.2801 4.77544 32.2036 4.49785 32.0617C4.22027 31.9199 3.97895 31.7166 3.79241 31.4674C3.51621 31.1689 3.39257 31.0481 3.10345 31.0481C2.93883 31.0481 2.78096 30.9829 2.66455 30.8668C2.54815 30.7508 2.48276 30.5934 2.48276 30.4293C2.48276 30.2652 2.54815 30.1078 2.66455 29.9918C2.78096 29.8757 2.93883 29.8106 3.10345 29.8106C3.41532 29.816 3.72181 29.8925 3.99939 30.0344C4.27698 30.1762 4.51829 30.3795 4.70483 30.6287C4.98122 30.9272 5.10486 31.0481 5.39379 31.0481C5.68272 31.0481 5.80599 30.9272 6.08177 30.6287C6.26444 30.3755 6.50494 30.1692 6.78339 30.0269C7.06183 29.8846 7.37024 29.8104 7.68314 29.8104C7.99605 29.8104 8.30446 29.8846 8.5829 30.0269C8.86135 30.1692 9.10185 30.3755 9.28452 30.6287C9.56092 30.9272 9.68456 31.0481 9.97399 31.0481C10.2634 31.0481 10.3868 30.9272 10.663 30.6287C10.8456 30.3756 11.086 30.1693 11.3644 30.0271C11.6428 29.8848 11.9511 29.8106 12.2639 29.8105C12.5767 29.8105 12.8851 29.8846 13.1635 30.0267C13.4419 30.1689 13.6825 30.375 13.8652 30.6281C14.1416 30.9272 14.2652 31.0481 14.5547 31.0481C14.8441 31.0481 14.9681 30.9272 15.2445 30.6281C15.4275 30.3751 15.6681 30.169 15.9467 30.0268C16.2252 29.8847 16.5336 29.8106 16.8465 29.8106C17.1595 29.8106 17.4679 29.8847 17.7464 30.0268C18.0249 30.169 18.2656 30.3751 18.4486 30.6281C18.725 30.9272 18.8486 31.0481 19.1383 31.0481C19.4281 31.0481 19.5517 30.9272 19.8281 30.6281C20.011 30.375 20.2516 30.1688 20.5302 30.0266C20.8087 29.8844 21.1172 29.8103 21.4302 29.8104C21.7431 29.8104 22.0515 29.8847 22.33 30.027C22.6085 30.1692 22.8491 30.3755 23.0319 30.6287C23.3083 30.9272 23.432 31.0481 23.7214 31.0481C24.0108 31.0481 24.1348 30.9272 24.4112 30.6281C24.5941 30.3751 24.8348 30.169 25.1133 30.0268C25.3919 29.8847 25.7003 29.8106 26.0132 29.8106C26.3261 29.8106 26.6345 29.8847 26.9131 30.0268C27.1916 30.169 27.4323 30.3751 27.6152 30.6281C27.8916 30.9266 28.0156 31.0481 28.3053 31.0481C28.5963 31.0481 28.7202 30.9266 28.9973 30.6281C29.1806 30.375 29.4215 30.1689 29.7003 30.0268C29.9791 29.8847 30.2878 29.8106 30.601 29.8106C30.9141 29.8106 31.2228 29.8847 31.5016 30.0268C31.7804 30.1689 32.0214 30.375 32.2047 30.6281C32.4814 30.9266 32.6056 31.0481 32.8966 31.0481C33.0612 31.0481 33.219 31.1132 33.3354 31.2293C33.4519 31.3453 33.5172 31.5027 33.5172 31.6668C33.5172 31.8309 33.4519 31.9883 33.3354 32.1043C33.219 32.2204 33.0612 32.2856 32.8966 32.2856Z" fill="#26B11A"/>
<path fill-rule="evenodd" clip-rule="evenodd" d="M17.3799 23.417C24.0616 23.417 26.9922 19.0212 22.0688 14.9184C23.5927 20.0762 19.5485 19.8417 17.3799 19.9003V17.9076L13.1013 21.6587L17.3799 25.4098V23.417Z" fill="#26B11A"/>
<path fill-rule="evenodd" clip-rule="evenodd" d="M18.3177 11.1673C11.636 11.1673 8.70547 15.5631 13.6288 19.6073C12.1049 14.5081 16.1491 14.7426 18.3177 14.684V16.6181L22.5963 12.9256L18.3177 9.17453V11.1673Z" fill="#26B11A"/>
</svg>
