<svg width="33" height="40" viewBox="0 0 33 40" fill="none" xmlns="http://www.w3.org/2000/svg">
    <path d="M33 34.2068L32.8788 28.0936L32.9838 25.021L32.5313 21.9884L32.3051 18.8278C32.297 18.772 32.297 18.7155 32.3051 18.6597L32.7576 15.6191L32.4909 9.33787C32.4869 9.30063 32.4869 9.26308 32.4909 9.22585L32.798 6.0252L32.394 2.82456C32.3862 2.76078 32.3862 2.69631 32.394 2.63253L32.6849 0.232046L30.4062 0.616123C30.3048 0.635557 30.2006 0.635557 30.0992 0.616123L27.0771 0L24.5722 0.112022L24.4187 6.05721V9.25785L24.847 12.5625C24.8637 12.6823 24.8527 12.8044 24.8149 12.9194C24.7771 13.0344 24.7135 13.1395 24.6288 13.2266C24.5448 13.3126 24.4423 13.3787 24.3291 13.4203C24.2158 13.4618 24.0946 13.4777 23.9743 13.4667L20.9523 13.1786L18.108 13.5067C18.0463 13.5148 17.9838 13.5148 17.9221 13.5067L15.0132 13.1786L12.1043 13.5627C12.024 13.5748 11.9422 13.5748 11.8619 13.5627L9.13883 13.0906C8.94911 13.0582 8.77731 12.9598 8.65435 12.8131C8.53139 12.6664 8.46537 12.4811 8.46817 12.2905L8.41161 9.32186V6.04121L8.57321 2.79256L8.41161 0.160032L5.90671 0.264053L2.82003 0.712142C2.75835 0.720194 2.69586 0.720194 2.63418 0.712142L0.51714 0.544109L0.476739 2.75255L0.76763 5.95319C0.771602 5.98508 0.771602 6.01732 0.76763 6.04921L0.646425 9.31386L0.412096 12.5945L0 15.6191L0.606024 18.5797C0.609997 18.6276 0.609997 18.6758 0.606024 18.7237L0.662585 21.8284V24.949C0.666568 24.9755 0.666568 25.0025 0.662585 25.029L0.331293 28.0616L0.654505 31.0702C0.658502 31.1101 0.658502 31.1503 0.654505 31.1902L0.51714 34.2949L0.250489 37.3515L0.533301 39.5839L2.69882 40L5.6643 39.792H5.76126L8.83986 39.952H11.8053L14.8112 39.4479H14.989L18.0595 39.6159L21.1139 39.976L24.1197 39.8L27.2307 39.7519L30.285 39.5919L32.5556 39.6639L32.4263 37.4315C32.4185 37.3677 32.4185 37.3032 32.4263 37.2394L33 34.2068ZM9.05803 20.8042L14.5122 15.4031C14.5877 15.3289 14.6773 15.2702 14.7757 15.2304C14.8742 15.1906 14.9796 15.1704 15.0859 15.171H17.3727C17.5847 15.1719 17.7878 15.2553 17.9383 15.4031L20.7341 18.1716L20.8391 17.9156C20.9036 17.7589 21.0165 17.6265 21.1617 17.5374C21.3068 17.4483 21.4768 17.407 21.6472 17.4195C21.816 17.4284 21.9778 17.4896 22.1097 17.5944C22.2417 17.6991 22.337 17.8423 22.3825 18.0036L24.0713 23.8608C24.1131 24.0004 24.1157 24.1488 24.0787 24.2898C24.0416 24.4308 23.9664 24.5591 23.8612 24.6609C23.7863 24.7365 23.6971 24.7967 23.5986 24.8379C23.5001 24.8791 23.3944 24.9005 23.2875 24.901C23.2152 24.9126 23.1415 24.9126 23.0693 24.901L17.1303 23.2046C16.9701 23.1587 16.8282 23.0648 16.7241 22.9359C16.6199 22.807 16.5586 22.6493 16.5485 22.4845C16.5359 22.3158 16.5775 22.1475 16.6676 22.0037C16.7576 21.86 16.8913 21.7481 17.0495 21.6843L17.3 21.6043L16.2172 20.5321L12.4518 24.2368C12.3004 24.3859 12.0956 24.4695 11.8821 24.4695C11.6686 24.4695 11.4638 24.3859 11.3124 24.2368L9.05803 21.9724C8.9773 21.8975 8.91294 21.8071 8.86895 21.7066C8.82495 21.6061 8.80225 21.4978 8.80225 21.3883C8.80225 21.2788 8.82495 21.1704 8.86895 21.0699C8.91294 20.9695 8.9773 20.879 9.05803 20.8042ZM15.5223 34.2388L14.7142 37.3355C14.6605 37.5405 14.5268 37.716 14.3426 37.8236C14.2194 37.8927 14.0801 37.9286 13.9385 37.9276C13.8688 37.9359 13.7982 37.9359 13.7285 37.9276L6.27032 35.9512C6.06492 35.8941 5.89064 35.7589 5.7855 35.5751L4.62194 33.6067C4.56874 33.5156 4.53422 33.415 4.52036 33.3106C4.50649 33.2063 4.51355 33.1002 4.54114 32.9986L5.56734 29.2138H5.2926C5.12509 29.2384 4.95401 29.2103 4.80352 29.1334C4.65304 29.0565 4.53076 28.9347 4.45395 28.7852C4.37715 28.6358 4.34971 28.4662 4.3755 28.3005C4.40129 28.1347 4.47902 27.9812 4.5977 27.8616L8.88026 23.4847C8.98306 23.3805 9.11265 23.306 9.25504 23.2693C9.39744 23.2327 9.54725 23.2352 9.6883 23.2767C9.827 23.3135 9.95326 23.3864 10.0541 23.4876C10.1549 23.5889 10.2267 23.7149 10.262 23.8528L11.7649 29.766C11.806 29.9271 11.7954 30.0968 11.7345 30.2517C11.6737 30.4065 11.5657 30.5388 11.4256 30.6301C11.2932 30.7148 11.1387 30.7593 10.9811 30.7581C10.8026 30.7576 10.6293 30.6985 10.4882 30.5901L10.2701 30.4221L9.87414 31.8784L14.9809 33.2386C15.1875 33.2931 15.3638 33.4264 15.4714 33.6094C15.5789 33.7924 15.6088 34.0101 15.5546 34.2148L15.5223 34.2388ZM28.4508 33.2066L27.3599 35.207C27.307 35.2989 27.2361 35.3794 27.1515 35.4439C27.0669 35.5085 26.9702 35.5558 26.867 35.5831L23.0531 36.5913L23.2228 36.8074C23.3172 36.9256 23.3759 37.0678 23.3922 37.2176C23.4085 37.3674 23.3818 37.5188 23.3151 37.6542C23.2484 37.7896 23.1445 37.9037 23.0152 37.9832C22.8859 38.0627 22.7366 38.1044 22.5845 38.1036C22.5201 38.1113 22.455 38.1113 22.3905 38.1036L16.4192 36.6153C16.28 36.5804 16.1527 36.5093 16.0504 36.4095C15.9482 36.3096 15.8747 36.1846 15.8374 36.0472C15.7965 35.9068 15.7953 35.758 15.8337 35.617C15.8722 35.4759 15.9489 35.348 16.0556 35.247L20.4674 31.0062C20.5878 30.8896 20.742 30.8132 20.9083 30.7876C21.0747 30.762 21.245 30.7885 21.3954 30.8634C21.5459 30.9384 21.6689 31.0579 21.7473 31.2055C21.8258 31.353 21.8557 31.5211 21.833 31.6863V31.9584L23.3117 31.5663L21.9057 26.4933C21.8775 26.3919 21.8698 26.286 21.883 26.1816C21.8961 26.0773 21.93 25.9765 21.9825 25.8851C22.035 25.7937 22.1052 25.7134 22.1891 25.6489C22.273 25.5844 22.3689 25.5369 22.4714 25.5091L25.5984 24.7089C25.8002 24.6651 26.0113 24.6995 26.1883 24.805C26.3725 24.9125 26.5062 25.0881 26.56 25.2931L28.6124 32.6305C28.6565 32.8391 28.619 33.0565 28.5073 33.2386L28.4508 33.2066Z" fill="#26B11A"/>
    <path d="M7.27231 27.7735C7.30121 27.8038 7.3282 27.8359 7.35312 27.8695C7.44404 28.027 7.47823 28.2104 7.45008 28.3896C7.45008 28.3896 7.45008 28.4536 7.45008 28.4856L6.73901 31.1102L8.29851 31.5263L9.00958 28.8937C9.0288 28.8661 9.04505 28.8366 9.05806 28.8057C9.12279 28.6385 9.24229 28.4976 9.39744 28.4056H9.50248C9.5645 28.3772 9.62955 28.3557 9.69641 28.3416L9.03382 25.7251L7.13495 27.6615C7.18545 27.6928 7.23163 27.7304 7.27231 27.7735Z" fill="#26B11A"/>
    <path d="M8.65395 33.2786L6.31066 32.6545L6.18945 33.1106L6.99748 34.4949L13.3486 36.1832L13.7688 34.6309L8.66203 33.2786H8.65395Z" fill="#26B11A"/>
    <path d="M20.9119 35.8713C20.9232 35.8244 20.9394 35.7788 20.9604 35.7353C21.0845 35.5635 21.2555 35.4303 21.4533 35.3512L24.1117 34.647L23.6915 33.0947L21.0412 33.7989C20.969 33.8111 20.8952 33.8111 20.823 33.7989C20.6822 33.8023 20.5429 33.7692 20.419 33.7029C20.3851 33.6782 20.3527 33.6515 20.322 33.6228C20.2724 33.5844 20.2265 33.5415 20.1847 33.4948L18.2292 35.3752L20.8715 36.0313C20.8797 35.9768 20.8932 35.9232 20.9119 35.8713Z" fill="#26B11A"/>
    <path d="M21.34 20.3561C21.2911 20.3768 21.2394 20.3903 21.1865 20.3961C21.1354 20.3999 21.0841 20.3999 21.033 20.3961C20.912 20.401 20.7919 20.3733 20.6855 20.3161C20.5991 20.2793 20.5198 20.2278 20.4512 20.164L18.5119 18.2437L17.3645 19.3799L19.3119 21.3003C19.3694 21.363 19.4183 21.4329 19.4573 21.5083C19.5143 21.6229 19.5447 21.7487 19.5462 21.8764C19.5501 21.9216 19.5501 21.9672 19.5462 22.0124C19.5536 22.0682 19.5536 22.1247 19.5462 22.1804L22.1642 22.9166L21.34 20.3561Z" fill="#26B11A"/>
    <path d="M15.6515 18.8359L17.3726 17.1315L17.0332 16.8035H15.4172L10.771 21.4044L11.9184 22.5406L15.6515 18.8359Z" fill="#26B11A"/>
    <path d="M23.6753 26.8534L25.0409 31.9104L25.6711 34.2308L26.1317 34.1108L26.9397 32.7265L25.2348 26.4373L23.6753 26.8534Z" fill="#26B11A"/>
</svg>
