<svg width="58" height="36" viewBox="0 0 58 36" fill="none" xmlns="http://www.w3.org/2000/svg">
<path d="M55.185 0.0118854C54.2878 0.0178279 53.2028 0.106966 51.9596 0.160449C51.3321 0.196105 50.6811 0.285243 49.9832 0.350611C49.2853 0.421921 48.5523 0.475405 47.7958 0.606141C47.0392 0.724992 46.2417 0.831957 45.4324 0.968636C44.6172 1.12314 43.7786 1.28953 42.9106 1.46187C42.0544 1.64609 41.1806 1.8719 40.2833 2.08584C39.386 2.29977 38.4829 2.58501 37.5622 2.84054C36.6356 3.10796 35.7149 3.44074 34.7765 3.73787C33.8441 4.05282 32.9116 4.42126 31.9674 4.76593C31.0291 5.14625 30.0967 5.53846 29.1583 5.93067C28.2318 6.35853 27.2876 6.76857 26.3727 7.2202C25.4578 7.67778 24.5312 8.11753 23.634 8.61076C23.1883 8.85441 22.7367 9.09211 22.291 9.33575C21.8512 9.58534 21.4055 9.84087 20.9715 10.0905C19.2239 11.0948 17.5466 12.1644 15.9456 13.2281C14.3563 14.3097 12.8433 15.3853 11.4475 16.4609C10.04 17.5305 8.74985 18.5883 7.58281 19.5867C5.23701 21.5893 3.38969 23.3721 2.13468 24.6616C1.33124 25.4817 0.774115 26.0938 0.475025 26.4325L0.222851 26.7237L0 26.9733V36H4.43122L4.53327 35.8277L6.57412 32.9752L7.02568 33.2961L5.13145 36H19.727L19.7575 35.9049C19.7575 35.9049 20.778 32.7791 23.2352 28.5837C23.8568 27.5378 24.543 26.4206 25.3405 25.2856C26.1205 24.1327 27.0178 22.968 27.9737 21.7973C28.9472 20.6444 29.9852 19.4678 31.1171 18.3566C31.6625 17.7801 32.2724 17.2572 32.8471 16.7045C33.457 16.1756 34.0552 15.6467 34.6827 15.1416C35.9377 14.1373 37.2279 13.1687 38.565 12.3249C38.8934 12.1109 39.2218 11.897 39.5561 11.6831C39.8904 11.4929 40.2305 11.2968 40.5648 11.1007C40.8991 10.9105 41.2392 10.7204 41.5676 10.5362C41.9019 10.3579 42.2479 10.1855 42.5763 10.0191C42.9106 9.84681 43.2449 9.67448 43.5733 9.50809C43.9076 9.35952 44.2477 9.21096 44.5761 9.0624C44.9104 8.91977 45.233 8.77121 45.5496 8.62859C45.8781 8.48597 46.2065 8.37306 46.5232 8.24827C47.8016 7.72532 49.0508 7.35094 50.1826 6.97656C50.7632 6.82205 51.3203 6.67943 51.8481 6.53681C52.3759 6.38825 52.8744 6.26345 53.3553 6.17432C54.3112 5.9901 55.1323 5.78211 55.8301 5.69297C56.7509 5.55629 57.4018 5.44932 57.742 5.40178C57.4018 5.45527 56.7509 5.56817 55.836 5.71674C55.1381 5.80588 54.323 6.03169 53.367 6.2278C52.8862 6.31694 52.3877 6.45362 51.8657 6.60812C51.3379 6.75669 50.7867 6.90525 50.2119 7.0657C49.0801 7.45196 47.8427 7.83823 46.5759 8.37306C46.2593 8.49785 45.9367 8.62265 45.6083 8.76527C45.2916 8.91383 44.9632 9.05645 44.6406 9.21096C44.3122 9.35952 43.978 9.50809 43.6495 9.66259C43.327 9.83493 42.9927 10.0073 42.6643 10.1796C42.3359 10.3519 41.9958 10.5243 41.6615 10.7025C41.3272 10.8986 41.0047 11.0888 40.6704 11.2849C40.3361 11.487 40.0077 11.6771 39.6734 11.8792C39.345 12.099 39.0224 12.307 38.6882 12.5269C37.3745 13.3826 36.1019 14.3572 34.8645 15.3674C34.2487 15.8726 33.6564 16.4133 33.0582 16.9422C32.4894 17.5008 31.8912 18.0238 31.3575 18.6002C30.2491 19.7174 29.2346 20.894 28.2787 22.0588C27.3403 23.2294 26.4724 24.3882 25.71 25.5352C24.93 26.6761 24.2556 27.7933 23.6574 28.8333C22.4669 30.9251 21.6166 32.7435 21.0829 34.039C20.6489 35.067 20.4144 35.7564 20.3381 36H22.6957C29.8797 9.11588 58 5.88907 58 5.88907V2.43645L54.5223 2.58501V2.5553L58 2.43645V0C58 0 56.9737 0.00594283 55.185 0.0118854ZM11.0546 28.2331L10.6969 27.9003L15.1187 23.1344L15.4354 23.4315L11.0546 28.2331ZM22.5608 16.8471C21.3175 17.8752 20.1094 18.9568 20.1094 18.9568L19.8572 18.6656C19.8572 18.6656 21.0829 17.59 22.3496 16.5678C23.6047 15.5398 24.9066 14.5711 24.9066 14.5711L25.1001 14.8267C25.1001 14.8267 23.8099 15.8131 22.5608 16.8471ZM33.1755 9.46649C31.7681 10.2628 30.4016 11.1304 30.4016 11.1304L30.2667 10.9046C30.2667 10.9046 31.6449 10.0429 33.0641 9.26444C34.4833 8.46814 35.9377 7.76692 35.9377 7.76692L36.0316 7.9452C36.0316 7.9452 34.5772 8.67019 33.1755 9.46649ZM45.016 4.37966C43.4677 4.82536 41.9488 5.3899 41.9488 5.3899L41.9019 5.25322C41.9019 5.25322 43.4267 4.70056 44.9867 4.26081C46.5349 3.81512 48.1183 3.47639 48.1183 3.47639L48.1359 3.56553C48.1359 3.56553 46.5583 3.91614 45.016 4.37966Z" fill="#373632"/>
</svg>
