<svg width="47" height="24" viewBox="0 0 47 24" fill="none" xmlns="http://www.w3.org/2000/svg">
    <path d="M9.89472 3.18896L8.92587 6.96679H17.6769L17.9923 3.2151L9.89472 3.18896Z" fill="#26B11A"/>
    <path d="M5.61484 19.8686C5.60264 19.9122 5.61832 19.9453 5.634 19.9662L16.5876 19.9801L17.0895 13.9893H7.12388L5.61484 19.8686Z" fill="#26B11A"/>
    <path d="M18.2255 13.9874L17.7254 19.98L28.7208 19.9922L28.2172 13.9874H18.2255Z" fill="#26B11A"/>
    <path d="M27.3172 3.2446L19.1256 3.21846L18.8119 6.96666H27.6292L27.3172 3.2446Z" fill="#26B11A"/>
    <path d="M27.7235 8.10097H18.718L18.3207 12.8529H28.1225L27.7235 8.10097Z" fill="#26B11A"/>
    <path d="M7.41517 12.8529H17.1856L17.5829 8.10097H8.63494L7.41517 12.8529Z" fill="#26B11A"/>
    <path d="M46.3917 22.552L39.568 0.782399C39.4216 0.313656 38.9929 0 38.5033 0H7.93911C7.44946 0 7.02079 0.3154 6.87442 0.780658L0.0523745 22.552C-0.055663 22.8935 0.00532595 23.2542 0.217916 23.5435C0.430506 23.8345 0.758103 24 1.11707 24H45.3288C45.6878 24 46.0154 23.8345 46.2279 23.5435C46.4388 23.2542 46.4998 22.8935 46.3917 22.552ZM41.7026 20.6613C41.4656 20.9662 41.1066 21.1405 40.7198 21.1405H5.72434C5.3375 21.1405 4.97854 20.9645 4.74155 20.6613C4.50456 20.3581 4.42266 19.9678 4.51676 19.5931L8.6884 3.00065C8.82781 2.44653 9.32443 2.05794 9.89598 2.05794H36.5499C37.1232 2.05794 37.6198 2.44653 37.7575 3.00065L41.9291 19.5931C42.0215 19.966 41.9396 20.3564 41.7026 20.6613Z" fill="#26B11A"/>
    <path d="M29.3527 13.9874L29.8563 19.9939L40.7193 20.0079L40.829 19.8685L39.3496 13.9874H29.3527Z" fill="#26B11A"/>
    <path d="M36.6581 3.2744L28.4559 3.24826L28.7661 6.96684H37.5868L36.6581 3.2744Z" fill="#26B11A"/>
    <path d="M37.8704 8.10097H28.8615L29.2588 12.8529H39.0658L37.8704 8.10097Z" fill="#26B11A"/>
</svg>
